<svg xmlns="http://www.w3.org/2000/svg" xmlns:xlink="http://www.w3.org/1999/xlink" version="1.1" width="1000" height="1000" viewBox="0 0 1000 1000" xml:space="preserve">
<desc>Created with Fabric.js 3.5.0</desc>
<defs>
</defs>
<rect x="0" y="0" width="100%" height="100%" fill="#ffffff"/>
<g transform="matrix(4.5562 0 0 4.5562 604.6153 601.2155)" id="504931" clip-path="url(#CLIPPATH_14)">
<clipPath id="CLIPPATH_14">
	<rect transform="matrix(1 0 0 1 0.0001 0.0002)" id="clip0_302_100" x="-79" y="-79" rx="0" ry="0" width="158" height="158"/>
</clipPath>
<path style="stroke: none; stroke-width: 1; stroke-dasharray: none; stroke-linecap: butt; stroke-dashoffset: 0; stroke-linejoin: miter; stroke-miterlimit: 4; is-custom-font: none; font-file-url: none; fill: rgb(0,0,0); fill-rule: nonzero; opacity: 1;" vector-effect="non-scaling-stroke" transform=" translate(-78.9999, -78.9998)" d="M 154.685 0.000367219 H 3.31409 C 1.48378 0.000367219 0 1.48415 0 3.31478 V 154.686 C 0 156.516 1.48378 158 3.31409 158 H 154.685 C 156.515 158 157.999 156.516 157.999 154.686 V 3.31478 C 158 3.26912 158 3.22347 157.999 3.17813 C 157.962 1.38523 156.478 -0.0373614 154.685 0.000367219 Z" stroke-linecap="round"/>
</g>
<g transform="matrix(13.3333 0 0 13.3333 500.4987 500.4987)" id="752173">
<path style="stroke: none; stroke-width: 1; stroke-dasharray: none; stroke-linecap: butt; stroke-dashoffset: 0; stroke-linejoin: miter; stroke-miterlimit: 4; is-custom-font: none; font-file-url: none; fill: rgb(234,212,28); fill-rule: nonzero; opacity: 1;" vector-effect="non-scaling-stroke" transform=" translate(-38, -37.5)" d="M 0.5 0 C 25.5169 0 50.4831 0 75.5 0 C 75.5 25.0169 75.5 50.0338 75.5 75 C 50.5338 75 25.5169 75 0.5 75 C 0.5 49.9325 0.5 24.9662 0.5 0 Z M 67.5999 39.7029 C 66.0807 36.9683 64.0044 35.0945 61.0165 34.4362 C 58.8896 33.9298 56.7627 33.9298 54.6357 34.3856 C 47.7485 35.8035 44.8113 44.1087 49.2677 49.6286 C 50.8376 51.553 52.9139 52.7178 55.0915 53.7306 C 57.0159 54.6421 58.9909 55.503 60.9153 56.4652 C 62.2319 57.1236 62.789 58.339 62.6371 59.8076 C 62.4851 61.2762 61.4723 62.0864 60.2063 62.5422 C 57.3704 63.555 54.0787 62.6435 52.1543 60.2633 C 51.7492 59.7569 51.344 59.1999 50.9389 58.6428 C 49.0145 59.7569 47.1408 60.8204 45.267 61.9345 C 46.4318 64.2134 48.0523 66.0365 50.2806 67.2519 C 54.0787 69.3282 58.0793 69.632 62.1813 68.6192 C 64.8653 67.9608 67.1442 66.5935 68.5621 64.1121 C 71.1955 59.4024 69.6762 53.528 65.0172 50.6415 C 62.9409 49.3754 60.6114 48.5145 58.4338 47.4004 C 57.3704 46.8433 56.2562 46.3369 55.3447 45.628 C 53.7242 44.3113 54.028 41.6779 55.8511 40.6651 C 57.6236 39.6523 60.105 40.26 61.4723 42.0324 C 61.7762 42.3869 61.9787 42.792 62.2826 43.1972 C 64.0044 42.0324 65.7768 40.8677 67.5999 39.7029 Z M 20.2502 62.6941 C 21.263 64.8717 22.7316 66.5935 24.8079 67.7076 C 27.4919 69.1762 30.4291 69.4294 33.417 68.9737 C 36.1009 68.5685 38.3292 67.3531 39.7978 64.9223 C 41.0132 62.8967 41.3677 60.6685 41.3677 58.2883 C 41.3677 50.5908 41.3677 42.8933 41.3677 35.1958 C 41.3677 34.9932 41.3677 34.74 41.3677 34.4868 C 38.9875 34.4868 36.7086 34.4868 34.3285 34.4868 C 34.3285 34.7907 34.3285 35.0439 34.3285 35.3477 C 34.3285 42.944 34.3285 50.4895 34.3285 58.0858 C 34.3285 58.7947 34.2779 59.5544 34.1766 60.2633 C 33.974 61.4281 33.3663 62.289 32.2016 62.6435 C 30.024 63.3018 28.2515 62.6435 26.9855 60.7698 C 26.6816 60.2633 26.3778 59.7569 26.0233 59.2505 C 24.0483 60.4153 22.1745 61.5294 20.2502 62.6941 Z" stroke-linecap="round"/>
</g>
</svg>