<svg width="76" height="76" viewBox="0 0 76 76" fill="none" xmlns="http://www.w3.org/2000/svg">
<path d="M10.375 12.75V63.375C4.25 56.625 0.5 47.75 0.5 38C0.5 28.25 4.25 19.375 10.375 12.75Z" fill="#707070"/>
<path d="M14.375 18.25L36 61.625H14.375V18.25Z" fill="black"/>
<path d="M38 56.75L16.75 14.375H59.25L38 56.75Z" fill="black"/>
<path d="M38 0.5C47.75 0.5 56.625 4.25 63.25 10.375H12.75C19.375 4.25 28.25 0.5 38 0.5Z" fill="#707070"/>
<path d="M61.625 61.625H40L61.625 18.25V61.625Z" fill="black"/>
<path d="M63.25 65.625C56.625 71.75 47.75 75.5 38 75.5C28.25 75.5 19.375 71.75 12.75 65.625H63.25Z" fill="#707070"/>
<path d="M65.625 63.25V12.75C71.75 19.375 75.5 28.25 75.5 38C75.5 47.75 71.75 56.625 65.625 63.25Z" fill="#707070"/>
<path d="M14.375 18.25L36 61.625H14.375V18.25Z" fill="#b3b3b3"/>
<path d="M38 56.75L16.75 14.375H59.25L38 56.75Z" fill="black"/>
<path d="M40 61.625L61.625 18.25V61.625H40Z" fill="#b3b3b3"/>
<path d="M16.75 14.375H59.25L38 56.75L16.75 14.375Z" fill="#f2f2f2"/>
</svg>
